<svg xmlns="http://www.w3.org/2000/svg" width="512" height="512" id="knight"><path fill="#375DAB" d="M397.117 261.816s-19.654-9.933-42.365 53.431l39.046 40.416s27.637-61.408 3.319-93.847z"></path><linearGradient id="a" x1="274.245" x2="276.251" y1="310.221" y2="155.137" gradientUnits="userSpaceOnUse"><stop offset=".005" stop-color="#FFC3B0"></stop><stop offset="1" stop-color="#E8897B"></stop></linearGradient><path fill="url(#a)" d="M240.722 187.892v42.194a47.76 47.76 0 0 1-8.46 27.165c-10.207 14.782-27.984 39.321-43.904 55.241 0 0 60.152 43.199 127.96 65.62l43.748-65.073s-35.745-12.578-33.458-47.576l-85.886-77.571z"></path><path fill="#E8897B" d="m326.607 265.463-85.886-77.571v42.194c0 .564-.044 1.125-.064 1.688l102.158 106.924 17.25-25.658c0-.001-35.745-12.579-33.458-47.577z"></path><path fill="#375DAB" d="M188.356 312.492s60.153 43.199 127.961 65.62l43.748-65.073s-11.502-4.056-21.04-13.949c-2.05 4.731-5.02 8.541-8.189 11.531-6.975 6.579-16.266 10.082-25.824 10.828-48.879 3.816-84.48-27.941-93.033-36.398-7.583 9.775-15.823 19.642-23.623 27.441z"></path><path fill="#FFF" d="m138.629 355.443 65.258-60.271s51.396 45.813 102.731 64.678c3.251 1.194 6.909.193 9.182-2.42 7.214-8.297 22.504-27.356 27.86-45.484l16.405 1.094s16.851 19.01 31.733 31.301c3.854 3.183 6.677 7.41 7.94 12.246 6.146 23.523 16.231 94.301-63.159 150.207-2.545 1.792-5.604 2.709-8.717 2.703-17.378-.025-76.74-4.477-125.479-60.294 0 0-25.552-28.183-55.213-41.36-10.503-4.667-17.611-14.697-18.647-26.144a31.84 31.84 0 0 1 10.106-26.256z"></path><path fill="#CDE0FF" d="M391.799 344.34c-14.883-12.291-31.733-31.301-31.733-31.301l-16.377-1.092-.042.038c-5.198 17.548-19.666 35.928-27.121 44.601 7.818 113.326-75.594 105.819-108.834 98.429 47.655 50.302 103.42 54.456 120.172 54.481 3.113.006 6.172-.911 8.717-2.703 79.391-55.906 69.305-126.684 63.159-150.207-1.264-4.836-4.088-9.064-7.941-12.246z"></path><path fill="#AFC8FF" d="M399.739 356.586c-1.264-4.836-4.087-9.063-7.94-12.246-14.883-12.291-31.733-31.301-31.733-31.301l-16.405-1.094c-5.356 18.128-20.646 37.188-27.86 45.484a8.48 8.48 0 0 1-3.919 2.532c21.161 63.453 19.606 129.354 18.518 149.317 2.213-.361 4.335-1.186 6.182-2.486 79.389-55.905 69.303-126.683 63.157-150.206z"></path><linearGradient id="b" x1="204.371" x2="153.739" y1="308.03" y2="228.221" gradientUnits="userSpaceOnUse"><stop offset="0" stop-color="#CC5697"></stop><stop offset="1" stop-color="#8E3979"></stop></linearGradient><path fill="url(#b)" d="m178.944 289.678 20.131-11.424c5.185-2.941 11.729-1.834 15.594 2.704 6.357 7.464 15.659 19.826 21.771 34.353 3.706 8.811.458 19.008-7.75 23.904-6.95 4.146-15.745 3.44-21.967-1.735-8.288-6.895-20.131-17.256-30.653-28.359-5.579-5.887-4.177-15.44 2.874-19.443z"></path><linearGradient id="c" x1="348.358" x2="366.379" y1="330.731" y2="270.661" gradientUnits="userSpaceOnUse"><stop offset="0" stop-color="#CC5697"></stop><stop offset="1" stop-color="#8E3979"></stop></linearGradient><path fill="url(#c)" d="m340.279 298.871.883 34.443a11.735 11.735 0 0 0 10.377 11.358c5.25.61 10.278-2.342 12.237-7.25 2.038-5.106 4.351-12.01 5.351-19.023.475-3.322-.779-6.652-3.244-8.931-3.943-3.643-10.814-9.377-19.633-14.281-2.717-1.511-6.05.576-5.971 3.684z"></path><path fill="#EEF5FF" d="M127.982 245.622c21.512 11.911 67.045 45.725 68.608 119.115.062 2.874-.614 5.716-1.893 8.29-6.011 12.104-27.357 45.396-82.178 50.643a15.351 15.351 0 0 1-12.804-4.916c-7.421-8.133-23.035-23.4-42.696-32.256-5.587-2.518-8.901-8.398-8.186-14.484 2.318-19.721 12.435-60.721 56.096-80.281 5.21-2.334 9.121-6.793 10.609-12.305 1.755-6.494 3.424-16.064 2.75-27.722-.295-5.138 5.192-8.577 9.694-6.084z"></path><path fill="#C7DAFF" d="M194.698 373.027c1.278-2.574 1.954-5.416 1.893-8.29-1.527-71.716-45.027-105.628-67.085-118.253 21.374 28.053 78.9 119.362-35.867 166a162.456 162.456 0 0 1 6.078 6.27 15.35 15.35 0 0 0 12.804 4.916c54.821-5.247 76.167-38.538 82.177-50.643z"></path><path fill="#FFF" d="M85.634 326.094c1.886-4.138 5.352-8.881 11.721-12.338.276-.15.569-.287.865-.396 1.295-.481 5.205-1.787 9.563-1.803 4.678-.018 7.691 4.988 5.387 9.059-2.978 5.26-8.988 11.859-20.81 13.891-4.815.825-8.753-3.967-6.726-8.413z"></path><linearGradient id="d" x1="217.32" x2="217.32" y1="119.614" y2="411.532" gradientUnits="userSpaceOnUse"><stop offset="0" stop-color="#CC5697"></stop><stop offset="1" stop-color="#8E3979"></stop></linearGradient><path fill="url(#d)" d="M281.39 47.353c0-24.77-20.079-44.849-44.849-44.849-46 0-83.29 37.29-83.29 83.29V220.34c0 9.799 7.943 17.743 17.742 17.743 9.799 0 17.742-7.944 17.742-17.743v-21.438a8.132 8.132 0 0 1 16.264 0v7.64c0 5.987 4.854 10.842 10.843 10.842 5.988 0 10.843-4.854 10.843-10.842V150.85s-1.479-74.42 54.705-103.497z"></path><path fill="#A03774" d="M236.541 2.504a82.943 82.943 0 0 0-34.156 7.33c20.04 4.269 50.212 18.157 39.928 63.346l6.765 2.704c7.77-11.102 18.228-21.242 32.313-28.531-.001-24.77-20.08-44.849-44.85-44.849z"></path><path fill="#EEF5FF" d="M229.514 179.146s-17.557-7.937-19.373-38.586c-1.274-21.487 5.293-42.817 17.998-60.192 5.124-7.008 11.768-14.413 20.228-21.042 32.111-25.162 77.159-26.15 110.59-2.77 14.69 10.273 27.934 26.128 32.029 50.513.556 3.309.809 6.662.947 10.015.449 10.92.381 33.998-7.376 43.644l-155.043 18.418z"></path><path fill="#C7DAFF" d="M384.557 160.728c7.757-9.646 7.825-32.724 7.376-43.644-.138-3.353-.392-6.706-.947-10.015-4.096-24.385-17.339-40.239-32.029-50.513-19.144-13.389-42.091-18.748-64.242-16.192 22.958 9.664 59.604 41.092-33.582 135.025l123.424-14.661z"></path><path fill="#FFF" d="M224.586 119.971c1.164-7.08 5.232-24.78 17.937-36.706a9.474 9.474 0 0 1 11.784-.938 9.428 9.428 0 0 1 2.549 13.065c-5.39 8.045-14.388 20.531-23.619 29.182a5.176 5.176 0 0 1-6.702.315 5.14 5.14 0 0 1-1.949-4.918z"></path><linearGradient id="e" x1="336.158" x2="244.579" y1="250.762" y2="109.716" gradientUnits="userSpaceOnUse"><stop offset=".005" stop-color="#FFC3B0"></stop><stop offset="1" stop-color="#E8897B"></stop></linearGradient><path fill="url(#e)" d="m240.722 187.892 7.761 32.224c1.406 5.843 4.803 11.023 9.647 14.579 11.676 8.566 36.225 24.784 68.879 36.626 3.857 1.398 7.95 2.045 12.054 2.045h8.435a14.875 14.875 0 0 0 13.6-8.814c4.793-10.723 12.286-30.813 15.907-57.974L250.98 179.146l-10.258 8.746z"></path><path fill="#E8897B" d="m265.688 182.347-2.853 8.726s36.556 23.462 71.207 37.934c6.821 2.849 11.425 9.374 11.513 16.766.078 6.656-.201 15.9-1.467 27.594h3.409a14.877 14.877 0 0 0 13.601-8.814c4.792-10.723 12.285-30.814 15.906-57.975l-111.316-24.231z"></path><path fill="#EEF5FF" d="M242.867 168.642c10.202-10.034 47.141-43.836 110.063-74.053 0 0 34.274 34.274 51.623 68.125v16.503s-16.342 26.915-48.923 47.649c0 0-54.445-10.532-111.532-46.917a7.333 7.333 0 0 1-3.157-4.395 7.212 7.212 0 0 1 1.926-6.912z"></path><path fill="#C7DAFF" d="M296.107 207.307c34.199 14.647 59.523 19.56 59.523 19.56 32.581-20.734 48.923-47.649 48.923-47.649v-16.503c-14.148-27.605-39.539-55.478-48.431-64.828.639 24.577-3.398 88.776-60.015 109.42z"></path><path fill="#819FEA" d="M404.554 179.217v-16.503c-17.349-33.851-51.623-68.125-51.623-68.125s9.208 51.292 2.7 132.277c32.581-20.734 48.923-47.649 48.923-47.649z"></path><path fill="#375DAB" d="M324.305 139.148s5.738-5.025 15.42-11.111c0 0 3.372 40.663.613 67.334l-15.42-8.481-.613-47.742zM301.893 154.366l1.796 21.047-14.135-8.102c0 .001 8.583-8.488 12.339-12.945zM369.607 134.256s2.026 28.685.336 59.959l9.798-11.249.305-37.136-10.439-11.574zM393.798 163.53c-1.344-1.563-2.977-3.399-4.443-4.866v16.238l4.443-5.031v-6.341z"></path><circle cx="240.721" cy="175.413" r="17.503" fill="#C7DAFF"></circle><path fill="#819FEA" d="M397.117 261.816s16.872 31.598-5.126 82.89c-2.442 5.692-1.662 12.251 2.263 17.045 5.494 6.711 13.889 16.292 22.575 23.686 7.895 6.718 18.821 8.526 28.486 4.775 4.157-1.612 8.777-3.817 13.345-6.812 4.308-2.822 5.818-8.428 3.557-13.055-5.569-11.395-18.641-33.754-43.948-56.361-1.425-1.273-2.311-3.046-2.397-4.954-.425-9.374-3.011-38.626-18.755-47.214z"></path><path fill="#CDE0FF" d="M186.541 434.025c17.616-21.152 50.458-58.766 85.93-90.223-7.133-3.998-14.021-8.217-20.498-12.438-10.954 24.433-34.844 57.382-86.932 86.346 8.147 5.3 15.508 11.115 21.5 16.315zM291.942 353.762a252.044 252.044 0 0 1-10.073-4.909c-17.385 20.25-57.174 66.259-84.475 95.216 3.169 3.135 4.99 5.133 4.99 5.133.469.537.943 1.037 1.414 1.563 18.631-22.963 56.701-68.477 88.144-97.003z"></path></svg>