<?xml version="1.0" standalone="no"?>
<!DOCTYPE svg PUBLIC "-//W3C//DTD SVG 20010904//EN"
 "http://www.w3.org/TR/2001/REC-SVG-20010904/DTD/svg10.dtd">
<svg version="1.0" xmlns="http://www.w3.org/2000/svg"
 width="670.000000pt" height="656.000000pt" viewBox="0 0 670.000000 656.000000"
 preserveAspectRatio="xMidYMid meet">

<g transform="translate(0.000000,656.000000) scale(0.100000,-0.100000)"
fill="#000000" stroke="none">
<path d="M1827 6554 c-1 -2 -218 -5 -481 -7 -263 -2 -481 -8 -485 -13 -3 -5
-24 -11 -46 -13 -22 -1 -48 -7 -57 -12 -9 -5 -27 -9 -40 -9 -50 0 -244 -114
-342 -201 -63 -56 -224 -253 -232 -285 -3 -13 -10 -24 -15 -24 -5 0 -9 -9 -9
-20 0 -11 -4 -20 -10 -20 -5 0 -10 -8 -10 -18 0 -10 -4 -22 -8 -27 -8 -9 -21
-49 -64 -195 -19 -67 -19 -4843 0 -4910 8 -25 23 -76 35 -115 23 -79 75 -180
154 -302 41 -64 69 -95 126 -137 39 -29 94 -71 120 -93 27 -23 73 -48 107 -59
33 -10 60 -22 60 -26 0 -5 7 -8 16 -8 8 0 25 -5 37 -12 76 -41 88 -41 2712
-42 2352 -1 2532 0 2563 16 18 9 30 13 27 8 -6 -10 56 23 178 93 36 20 71 37
79 37 8 0 32 18 53 41 22 22 58 50 79 61 39 20 74 48 60 48 -4 0 4 11 18 24
13 14 50 73 82 133 32 59 69 119 82 134 16 16 24 37 24 60 0 18 8 48 19 64 10
17 22 46 26 65 14 56 18 4756 5 4874 -19 163 -61 273 -163 426 -61 91 -200
233 -282 286 -79 52 -207 114 -265 129 -14 3 -47 12 -75 20 -27 7 -84 16 -125
20 -71 6 -3947 15 -3953 9z m3718 -888 c154 -46 297 -157 363 -282 34 -65 40
-90 20 -78 -7 4 -5 -1 4 -12 22 -25 42 -107 34 -139 -4 -15 -13 -25 -24 -24
-11 0 -12 2 -4 6 10 4 10 8 1 19 -9 11 -9 18 -1 26 15 15 16 52 2 43 -5 -3
-10 -2 -10 4 0 6 -6 8 -14 5 -11 -4 -13 0 -9 17 4 15 3 20 -5 15 -7 -4 -12 -2
-12 3 0 6 -7 11 -16 11 -10 0 -14 5 -10 16 3 8 2 13 -3 10 -4 -3 -13 6 -19 20
-20 42 -90 129 -132 163 -22 18 -75 49 -118 69 l-77 37 -2100 3 c-2333 3
-2182 7 -2301 -64 -81 -47 -150 -125 -193 -214 l-36 -75 -3 -1870 c-2 -1358 0
-1886 8 -1929 7 -33 22 -83 35 -111 14 -32 18 -52 11 -52 -37 1 -46 -4 -46
-27 0 -14 7 -32 16 -40 8 -9 11 -16 6 -16 -14 0 -28 19 -60 85 -60 123 -57 2
-57 2060 l0 1890 23 59 c67 177 196 309 357 363 71 25 403 28 2525 28 1687 -1
1788 -2 1845 -19z m-3327 -236 c895 0 922 -1 922 -19 0 -10 -6 -24 -13 -30
-10 -8 -288 -10 -1003 -8 -969 2 -989 2 -992 21 -7 35 26 48 98 42 36 -3 480
-6 988 -6z m3149 4 c195 -6 233 -9 238 -22 3 -8 1 -20 -5 -26 -11 -11 -1855
-20 -1892 -10 -20 6 -24 34 -8 50 12 12 1322 18 1667 8z m-1807 -238 c0 -5
-34 -43 -75 -85 l-75 -76 -70 75 c-38 41 -69 82 -70 91 0 8 32 48 72 89 l72
73 73 -79 c40 -43 73 -83 73 -88z m-542 69 c6 -2 12 -14 12 -25 0 -39 -37 -43
-340 -36 -157 3 -592 6 -967 6 l-683 0 0 25 c0 16 7 28 19 33 21 8 1938 5
1959 -3z m2700 3 c14 -14 15 -28 4 -46 -11 -16 -1920 -18 -1936 -2 -7 7 -7 16
0 28 10 16 76 17 955 22 519 3 949 6 955 8 5 1 15 -3 22 -10z m175 -88 c5 -42
4 -46 -2 -20 -14 58 -22 118 -12 95 5 -11 11 -45 14 -75z m-2844 -84 c6 -4 11
-18 11 -32 l0 -24 -1015 0 c-805 0 -1015 3 -1016 13 -2 23 3 42 13 49 15 8
1992 3 2007 -6z m2669 5 c8 -1 12 -11 10 -28 l-3 -28 -981 -3 c-926 -2 -982
-1 -989 15 -4 12 1 23 12 33 17 13 137 15 979 14 527 -1 965 -2 972 -3z
m-3716 -437 c2 -70 -1 -129 -7 -135 -5 -5 -124 -9 -282 -9 l-273 0 0 -145 0
-145 225 0 226 0 -3 -127 -3 -128 -222 -3 -223 -2 -2 -348 -3 -347 -140 0
-140 0 -1 740 c-1 407 0 748 3 758 4 16 33 17 423 17 l419 0 3 -126z m944
-609 c134 -401 244 -742 244 -757 l0 -28 -150 0 -149 0 -38 121 -38 120 -225
-1 c-123 0 -226 -3 -228 -5 -3 -3 -21 -55 -41 -117 l-37 -113 -152 -3 c-146
-2 -152 -2 -152 17 0 18 99 328 166 521 15 41 37 109 49 150 13 41 32 95 43
120 10 25 27 76 37 115 9 38 28 91 41 117 13 25 33 81 44 123 11 43 28 91 36
107 9 17 27 67 40 112 13 44 29 94 35 109 l12 28 109 -3 109 -3 245 -730z
m987 725 c288 -42 520 -199 629 -425 48 -100 68 -193 68 -315 0 -118 -17 -189
-74 -305 -82 -166 -194 -277 -371 -365 -172 -86 -223 -95 -550 -95 l-280 0 -3
758 -2 757 256 0 c140 0 288 -5 327 -10z m930 -47 c38 -64 210 -380 249 -457
l25 -49 28 49 c16 27 61 110 100 184 127 239 158 295 173 313 13 15 34 17 159
17 78 0 143 -3 143 -6 0 -7 -143 -291 -173 -343 -11 -20 -81 -155 -155 -301
l-134 -265 -1 -300 -2 -300 -133 -3 -133 -3 1 301 2 300 -65 122 c-90 173
-294 554 -361 676 -31 56 -56 107 -56 112 0 6 60 10 149 10 l150 0 34 -57z
m-3485 -2005 l2 -248 195 0 195 0 1 128 c0 70 3 181 5 247 l4 120 110 3 110 3
0 -606 0 -605 -115 0 -115 0 0 240 0 241 -195 -1 -195 -2 0 -239 0 -239 -110
0 -110 0 -2 601 c-2 330 -1 603 1 605 3 3 52 3 110 2 l106 -3 3 -247z m1419
-25 c51 -153 128 -395 173 -538 45 -143 90 -287 101 -319 10 -33 19 -64 19
-68 0 -4 -51 -8 -114 -8 l-114 0 -21 70 c-12 38 -24 83 -27 100 l-6 30 -179 0
-178 0 -16 -57 c-9 -32 -22 -76 -29 -98 l-13 -40 -111 -3 c-95 -2 -112 0 -112
13 0 18 57 221 66 236 4 6 24 68 44 138 21 69 48 155 60 191 11 36 38 119 59
185 22 66 62 193 91 283 l52 162 82 0 83 0 90 -277z m1043 172 l0 -104 -137
-3 -138 -3 -3 -497 -2 -498 -110 0 -110 0 -2 498 -3 497 -145 5 -145 5 -3 89
c-2 49 -1 95 2 103 4 10 81 13 401 13 l395 0 0 -105z m920 0 l0 -104 -141 -3
-141 -3 -1 -495 -2 -495 -115 -3 -116 -3 3 501 3 500 -145 0 -145 0 0 105 0
105 400 0 400 0 0 -105z m537 -5 c19 -58 66 -206 105 -330 38 -124 108 -344
154 -489 46 -145 84 -267 84 -272 0 -5 -51 -9 -114 -9 l-113 0 -23 83 c-12 45
-24 90 -27 100 -4 16 -19 17 -185 15 l-180 -3 -27 -95 -27 -95 -118 -3 c-110
-2 -118 -1 -111 15 3 10 20 68 37 128 17 61 37 122 44 136 7 15 23 64 34 110
12 46 34 120 50 164 16 44 49 148 75 230 26 83 56 177 67 210 50 148 67 195
73 205 4 7 37 10 88 8 l81 -3 33 -105z m-1811 -1427 c27 -30 52 -60 56 -66 7
-11 -109 -147 -126 -147 -10 0 -136 130 -136 140 0 3 29 35 64 72 41 43 70 66
79 62 8 -3 37 -30 63 -61z m-2409 31 c-3 -3 -12 -4 -19 -1 -8 3 -5 6 6 6 11 1
17 -2 13 -5z m2798 -4 c-28 -12 -37 -12 -30 0 3 6 16 10 28 9 21 0 21 -1 2 -9z
m1773 3 c-10 -2 -28 -2 -40 0 -13 2 -5 4 17 4 22 1 32 -1 23 -4z m-2607 -169
c9 -11 10 -20 2 -32 -9 -16 -84 -17 -958 -17 -861 0 -949 1 -958 16 -6 9 -7
24 -4 33 6 15 86 16 955 16 854 0 951 -2 963 -16z m2587 4 c6 -8 6 -22 1 -36
l-8 -22 -912 2 c-867 3 -912 4 -923 21 -9 15 -7 21 8 33 17 12 152 14 922 14
709 0 904 -3 912 -12z"/>
<path d="M5940 5171 c0 -5 5 -13 10 -16 6 -3 10 -2 10 4 0 5 -4 13 -10 16 -5
3 -10 2 -10 -4z"/>
<path d="M2512 4018 c-40 -123 -73 -226 -72 -230 0 -13 290 -10 290 3 0 12
-139 449 -143 449 -1 0 -35 -100 -75 -222z"/>
<path d="M3630 4035 l0 -495 89 0 c111 0 254 35 350 85 89 47 176 137 227 235
38 74 39 77 39 185 0 100 -3 115 -28 166 -60 123 -199 238 -337 279 -72 21
-206 40 -287 40 l-53 0 0 -495z"/>
<path d="M2585 2417 c-21 -67 -46 -150 -56 -184 l-18 -63 115 0 c63 0 114 3
114 6 0 8 -110 358 -114 361 -1 2 -20 -52 -41 -120z"/>
<path d="M5160 2497 c-7 -17 -31 -97 -55 -177 l-43 -145 111 -3 c60 -1 111 -1
113 0 2 2 -17 66 -41 143 -25 76 -48 154 -51 172 -9 46 -20 49 -34 10z"/>
</g>
</svg>
