<?xml version="1.0" standalone="no"?>
<!DOCTYPE svg PUBLIC "-//W3C//DTD SVG 20010904//EN"
 "http://www.w3.org/TR/2001/REC-SVG-20010904/DTD/svg10.dtd">
<svg version="1.0" xmlns="http://www.w3.org/2000/svg"
 width="48" height="48" viewBox="0 0 520.000000 520.000000"
 preserveAspectRatio="xMidYMid meet">

<g transform="translate(0.000000,520.000000) scale(0.100000,-0.100000)"
fill="#000000" stroke="none">
<path d="M2020 5080 l-245 -117 -2 -44 c-2 -24 -12 -273 -23 -554 -32 -818
-41 -990 -48 -996 -4 -4 -29 -14 -55 -24 -26 -10 -50 -22 -53 -27 -3 -4 -20
-174 -39 -376 -26 -286 -283 -2342 -331 -2645 -6 -37 0 -33 157 132 l163 170
83 -202 c63 -155 83 -213 83 -249 l0 -48 276 0 275 0 -3 52 -3 52 -125 38
c-69 21 -132 38 -141 38 -9 0 -74 -18 -143 -39 -69 -21 -126 -35 -126 -31 0 5
29 69 64 144 43 89 69 134 78 132 7 -3 37 -7 67 -11 30 -3 64 -7 75 -10 12 -2
44 -7 71 -10 28 -3 74 -9 103 -13 28 -5 52 -7 52 -4 0 2 7 -1 15 -8 12 -10 15
-37 15 -121 l0 -109 290 0 290 0 -2 723 -3 722 -95 0 -95 0 4 -507 c2 -294 0
-508 -5 -508 -9 0 -757 162 -761 165 -1 1 17 190 41 421 25 230 48 476 51 546
l7 128 329 0 c256 0 329 3 330 13 0 6 0 57 -1 111 l-1 99 -46 44 c-25 23 -55
43 -65 43 -11 0 -126 -18 -256 -39 -130 -22 -249 -41 -263 -43 -23 -3 -57 30
-252 236 -124 132 -224 243 -222 247 3 3 31 5 62 3 32 -1 148 -5 258 -8 110
-3 339 -10 509 -16 170 -5 311 -9 313 -7 2 3 11 100 26 296 l3 35 143 52 c78
29 145 55 148 57 3 3 -5 16 -17 29 -12 13 -26 41 -32 63 l-11 40 -118 -57
-119 -57 0 -61 0 -61 -37 7 c-229 41 -694 131 -697 135 -2 2 -7 38 -10 79 -3
41 -9 107 -13 145 -4 39 -7 92 -7 119 l-1 49 49 14 c53 16 65 10 66 -32 0 -17
54 -42 342 -157 l341 -138 149 110 c81 61 151 110 155 110 3 0 3 -19 0 -43
l-6 -42 38 3 c22 2 51 -3 69 -12 30 -15 30 -15 36 16 3 17 6 43 6 59 l0 29
-92 -1 c-85 -1 -194 4 -413 16 -44 2 -161 7 -260 10 -244 8 -245 8 -245 48 0
18 -3 64 -6 102 -3 39 -8 113 -12 165 l-7 94 -65 27 -65 28 -13 138 -13 139
40 309 c22 169 43 310 45 312 3 3 149 -21 325 -53 l320 -58 276 58 c152 32
279 56 283 52 6 -7 -6 -188 -58 -836 -17 -201 -30 -375 -30 -387 0 -25 17 -28
170 -39 l95 -6 -7 128 c-4 71 -16 276 -27 455 l-18 326 23 204 c12 112 25 223
28 246 l5 41 -225 161 -225 161 -372 -1 -372 -1 -245 -118z"/>
<path d="M2222 4303 c-22 -38 -39 -69 -37 -71 2 -2 20 8 42 22 36 23 49 25
216 32 97 4 176 9 174 11 -6 5 -317 73 -337 73 -11 0 -33 -26 -58 -67z"/>
<path d="M2925 4336 c-77 -18 -147 -35 -155 -38 -8 -3 66 -8 165 -12 169 -7
182 -9 224 -34 25 -14 42 -22 39 -17 -2 6 -22 38 -42 73 -45 74 -35 73 -231
28z"/>
<path d="M2334 4184 c-43 -42 -15 -104 46 -104 55 0 80 70 40 110 -27 27 -56
25 -86 -6z"/>
<path d="M2906 4189 c-48 -38 -23 -109 39 -109 37 0 65 28 65 66 0 23 -42 64
-65 64 -7 0 -24 -9 -39 -21z"/>
<path d="M2606 3871 c5 -4 27 -20 48 -34 l39 -26 44 31 c23 17 42 33 40 34 -2
2 -20 -1 -41 -7 -28 -8 -51 -8 -82 0 -52 13 -61 14 -48 2z"/>
<path d="M2365 3681 c-26 -5 -30 -11 -33 -45 -3 -35 -2 -38 13 -26 13 11 20 9
43 -13 28 -27 30 -27 175 -27 81 0 147 3 148 8 0 4 2 15 4 25 3 15 -7 17 -88
17 -86 0 -215 15 -226 26 -3 3 0 14 7 24 13 22 11 23 -43 11z"/>
<path d="M3450 3467 c0 -8 -38 -332 -44 -379 -24 -173 -58 -500 -53 -505 7 -6
542 51 614 66 l32 6 -263 398 c-252 381 -286 430 -286 414z"/>
<path d="M3300 1363 l0 -838 121 -121 121 -121 -32 -12 c-18 -6 -72 -11 -119
-11 l-86 0 3 -60 4 -60 129 0 130 0 16 29 c16 26 27 31 151 57 73 16 138 32
144 35 5 4 -55 92 -140 203 l-150 197 -6 77 c-3 42 -15 356 -26 697 -12 341
-23 635 -26 653 -3 19 -21 50 -41 73 l-35 39 -79 0 -79 0 0 -837z"/>
</g>
</svg>
